# xmcd CD database file
#
# Track frame offsets:
#	150
#	16175
#	36475
#	62647
#	84602
#	100740
#	133475
#	160117
#	175652
#	203912
#	232812
#	263650
#	278845
#	300635
#	316447
#
# Disc length: 4526 seconds
#
# Revision: 10
# Processed by: cddbd v1.5.2PL0 Copyright (c) Steve Scherf et al.
# Submitted via: CDex 1.70beta2
#
DISCID=c611ac0f
DTITLE=Roy Buchanan - Sweet Dreams-The Anthology disc 1
DYEAR=1992
DGENRE=Blues
TTITLE0=Baltimore
TTITLE1=Black Autumn
TTITLE2=The Story Of Isaac
TTITLE3=There'll Always Be
TTITLE4=Sweet Dreams
TTITLE5=Pete's Blue
TTITLE6=The Messiah Will Come Again
TTITLE7=Tribute To Elmore James
TTITLE8=After Hours
TTITLE9=Five String Blues
TTITLE10=C.C. Rider(Live)
TTITLE11=My Baby Says She's Gonna Leave Me
TTITLE12=Please Don't Turn Me Away
TTITLE13=Country Preacher
TTITLE14=Wayfaring Pilgrim
EXTD=YEAR: 1992
EXTT0=
EXTT1=
EXTT2=
EXTT3=
EXTT4=
EXTT5=
EXTT6=
EXTT7=
EXTT8=
EXTT9=
EXTT10=
EXTT11=
EXTT12=
EXTT13=
EXTT14=
PLAYORDER=
